<mxfile host="app.diagrams.net" modified="2023-03-07T04:40:33.921Z" agent="5.0 (Macintosh; Intel Mac OS X 10_15_7) AppleWebKit/537.36 (KHTML, like Gecko) Chrome/109.0.0.0 Safari/537.36" etag="4LxUXmAk-otPTaZd43Ne" version="21.0.2" type="github">
  <diagram name="페이지-1" id="-8BfHyuhOYc2tNKekYW0">
    <mxGraphModel dx="795" dy="497" grid="1" gridSize="10" guides="1" tooltips="1" connect="1" arrows="1" fold="1" page="1" pageScale="1" pageWidth="827" pageHeight="1169" math="0" shadow="0">
      <root>
        <mxCell id="0" />
        <mxCell id="1" parent="0" />
        <mxCell id="0kle1VkK1ZtakKVvM_SF-2" value="게시판 서비스" style="shape=umlFrame;whiteSpace=wrap;html=1;pointerEvents=0;width=100;height=20;" vertex="1" parent="1">
          <mxGeometry x="280" y="230" width="400" height="530" as="geometry" />
        </mxCell>
        <mxCell id="0kle1VkK1ZtakKVvM_SF-3" value="Actor" style="shape=umlActor;verticalLabelPosition=bottom;verticalAlign=top;html=1;" vertex="1" parent="1">
          <mxGeometry x="150" y="450" width="30" height="60" as="geometry" />
        </mxCell>
        <mxCell id="0kle1VkK1ZtakKVvM_SF-4" value="회원가입" style="rounded=1;whiteSpace=wrap;html=1;fillColor=#fff2cc;strokeColor=#e01d10;" vertex="1" parent="1">
          <mxGeometry x="330" y="380" width="100" height="30" as="geometry" />
        </mxCell>
        <mxCell id="0kle1VkK1ZtakKVvM_SF-5" value="게시판 보기" style="rounded=1;whiteSpace=wrap;html=1;fillColor=#fff2cc;strokeColor=#e01d10;" vertex="1" parent="1">
          <mxGeometry x="320" y="440" width="100" height="30" as="geometry" />
        </mxCell>
        <mxCell id="0kle1VkK1ZtakKVvM_SF-6" value="게시글 보기" style="rounded=1;whiteSpace=wrap;html=1;fillColor=#fff2cc;strokeColor=#e01d10;" vertex="1" parent="1">
          <mxGeometry x="320" y="560" width="100" height="30" as="geometry" />
        </mxCell>
        <mxCell id="0kle1VkK1ZtakKVvM_SF-7" value="회원 로그인" style="rounded=1;whiteSpace=wrap;html=1;fillColor=#fff2cc;strokeColor=#e01d10;" vertex="1" parent="1">
          <mxGeometry x="440" y="270" width="100" height="30" as="geometry" />
        </mxCell>
        <mxCell id="0kle1VkK1ZtakKVvM_SF-8" value="게시글 정렬" style="rounded=1;whiteSpace=wrap;html=1;fillColor=#fff2cc;strokeColor=#e01d10;" vertex="1" parent="1">
          <mxGeometry x="440" y="440" width="100" height="30" as="geometry" />
        </mxCell>
        <mxCell id="0kle1VkK1ZtakKVvM_SF-9" value="게시글 검색" style="rounded=1;whiteSpace=wrap;html=1;fillColor=#fff2cc;strokeColor=#e01d10;" vertex="1" parent="1">
          <mxGeometry x="440" y="480" width="100" height="30" as="geometry" />
        </mxCell>
        <mxCell id="0kle1VkK1ZtakKVvM_SF-10" value="게시글 쓰기, 수정, 삭제" style="rounded=1;whiteSpace=wrap;html=1;fillColor=#fff2cc;strokeColor=#e01d10;" vertex="1" parent="1">
          <mxGeometry x="440" y="580" width="100" height="30" as="geometry" />
        </mxCell>
        <mxCell id="0kle1VkK1ZtakKVvM_SF-11" value="댓글 보기, 쓰기,&amp;nbsp;&lt;br&gt;&amp;nbsp;수정, 삭제" style="rounded=1;whiteSpace=wrap;html=1;fillColor=#fff2cc;strokeColor=#e01d10;" vertex="1" parent="1">
          <mxGeometry x="440" y="620" width="100" height="30" as="geometry" />
        </mxCell>
        <mxCell id="0kle1VkK1ZtakKVvM_SF-12" value="인증" style="rounded=1;whiteSpace=wrap;html=1;fillColor=#fff2cc;strokeColor=#e01d10;" vertex="1" parent="1">
          <mxGeometry x="560" y="245" width="100" height="30" as="geometry" />
        </mxCell>
        <mxCell id="0kle1VkK1ZtakKVvM_SF-13" value="회원가입" style="rounded=1;whiteSpace=wrap;html=1;fillColor=#fff2cc;strokeColor=#e01d10;" vertex="1" parent="1">
          <mxGeometry x="560" y="290" width="100" height="30" as="geometry" />
        </mxCell>
        <mxCell id="0kle1VkK1ZtakKVvM_SF-17" value="" style="endArrow=none;html=1;rounded=0;entryX=0;entryY=0.5;entryDx=0;entryDy=0;" edge="1" parent="1" target="0kle1VkK1ZtakKVvM_SF-4">
          <mxGeometry width="50" height="50" relative="1" as="geometry">
            <mxPoint x="180" y="480" as="sourcePoint" />
            <mxPoint x="230" y="430" as="targetPoint" />
          </mxGeometry>
        </mxCell>
        <mxCell id="0kle1VkK1ZtakKVvM_SF-18" value="" style="endArrow=none;html=1;rounded=0;entryX=0;entryY=0.5;entryDx=0;entryDy=0;" edge="1" parent="1" target="0kle1VkK1ZtakKVvM_SF-5">
          <mxGeometry width="50" height="50" relative="1" as="geometry">
            <mxPoint x="180" y="480" as="sourcePoint" />
            <mxPoint x="430" y="420" as="targetPoint" />
          </mxGeometry>
        </mxCell>
        <mxCell id="0kle1VkK1ZtakKVvM_SF-19" value="" style="endArrow=none;html=1;rounded=0;entryX=0;entryY=0.5;entryDx=0;entryDy=0;" edge="1" parent="1" target="0kle1VkK1ZtakKVvM_SF-6">
          <mxGeometry width="50" height="50" relative="1" as="geometry">
            <mxPoint x="180" y="480" as="sourcePoint" />
            <mxPoint x="430" y="420" as="targetPoint" />
          </mxGeometry>
        </mxCell>
        <mxCell id="0kle1VkK1ZtakKVvM_SF-21" value="" style="endArrow=classic;html=1;rounded=0;dashed=1;dashPattern=1 4;exitX=1;exitY=0.5;exitDx=0;exitDy=0;" edge="1" parent="1" source="0kle1VkK1ZtakKVvM_SF-7">
          <mxGeometry width="50" height="50" relative="1" as="geometry">
            <mxPoint x="540" y="290" as="sourcePoint" />
            <mxPoint x="560" y="270" as="targetPoint" />
          </mxGeometry>
        </mxCell>
        <mxCell id="0kle1VkK1ZtakKVvM_SF-22" value="" style="endArrow=none;html=1;rounded=0;entryX=0;entryY=0.5;entryDx=0;entryDy=0;" edge="1" parent="1" target="0kle1VkK1ZtakKVvM_SF-7">
          <mxGeometry width="50" height="50" relative="1" as="geometry">
            <mxPoint x="180" y="480" as="sourcePoint" />
            <mxPoint x="230" y="430" as="targetPoint" />
          </mxGeometry>
        </mxCell>
        <mxCell id="0kle1VkK1ZtakKVvM_SF-24" value="" style="endArrow=classic;html=1;rounded=0;entryX=1;entryY=0.75;entryDx=0;entryDy=0;dashed=1;dashPattern=1 4;" edge="1" parent="1" target="0kle1VkK1ZtakKVvM_SF-7">
          <mxGeometry width="50" height="50" relative="1" as="geometry">
            <mxPoint x="560" y="310" as="sourcePoint" />
            <mxPoint x="610" y="260" as="targetPoint" />
          </mxGeometry>
        </mxCell>
        <mxCell id="0kle1VkK1ZtakKVvM_SF-29" value="DB" style="whiteSpace=wrap;html=1;aspect=fixed;" vertex="1" parent="1">
          <mxGeometry x="720" y="440" width="80" height="80" as="geometry" />
        </mxCell>
        <mxCell id="0kle1VkK1ZtakKVvM_SF-30" value="" style="endArrow=none;html=1;rounded=0;entryX=0;entryY=0.5;entryDx=0;entryDy=0;" edge="1" parent="1" target="0kle1VkK1ZtakKVvM_SF-29">
          <mxGeometry width="50" height="50" relative="1" as="geometry">
            <mxPoint x="660" y="260" as="sourcePoint" />
            <mxPoint x="710" y="210" as="targetPoint" />
          </mxGeometry>
        </mxCell>
        <mxCell id="0kle1VkK1ZtakKVvM_SF-31" value="" style="endArrow=classic;html=1;rounded=0;entryX=1;entryY=0.5;entryDx=0;entryDy=0;" edge="1" parent="1" target="0kle1VkK1ZtakKVvM_SF-5">
          <mxGeometry width="50" height="50" relative="1" as="geometry">
            <mxPoint x="720" y="480" as="sourcePoint" />
            <mxPoint x="500" y="460" as="targetPoint" />
            <Array as="points">
              <mxPoint x="460" y="420" />
            </Array>
          </mxGeometry>
        </mxCell>
        <mxCell id="0kle1VkK1ZtakKVvM_SF-32" value="" style="endArrow=classic;html=1;rounded=0;exitX=0;exitY=0.5;exitDx=0;exitDy=0;entryX=1;entryY=0.5;entryDx=0;entryDy=0;" edge="1" parent="1" source="0kle1VkK1ZtakKVvM_SF-29" target="0kle1VkK1ZtakKVvM_SF-6">
          <mxGeometry width="50" height="50" relative="1" as="geometry">
            <mxPoint x="450" y="510" as="sourcePoint" />
            <mxPoint x="500" y="460" as="targetPoint" />
          </mxGeometry>
        </mxCell>
        <mxCell id="0kle1VkK1ZtakKVvM_SF-33" value="" style="endArrow=none;html=1;rounded=0;exitX=1;exitY=0.5;exitDx=0;exitDy=0;" edge="1" parent="1" source="0kle1VkK1ZtakKVvM_SF-8">
          <mxGeometry width="50" height="50" relative="1" as="geometry">
            <mxPoint x="450" y="510" as="sourcePoint" />
            <mxPoint x="720" y="480" as="targetPoint" />
          </mxGeometry>
        </mxCell>
        <mxCell id="0kle1VkK1ZtakKVvM_SF-34" value="" style="endArrow=none;html=1;rounded=0;entryX=0;entryY=0.5;entryDx=0;entryDy=0;exitX=1;exitY=0.5;exitDx=0;exitDy=0;" edge="1" parent="1" source="0kle1VkK1ZtakKVvM_SF-9" target="0kle1VkK1ZtakKVvM_SF-29">
          <mxGeometry width="50" height="50" relative="1" as="geometry">
            <mxPoint x="450" y="510" as="sourcePoint" />
            <mxPoint x="500" y="460" as="targetPoint" />
          </mxGeometry>
        </mxCell>
        <mxCell id="0kle1VkK1ZtakKVvM_SF-35" value="" style="endArrow=none;html=1;rounded=0;exitX=1;exitY=0.5;exitDx=0;exitDy=0;" edge="1" parent="1" source="0kle1VkK1ZtakKVvM_SF-10">
          <mxGeometry width="50" height="50" relative="1" as="geometry">
            <mxPoint x="450" y="510" as="sourcePoint" />
            <mxPoint x="720" y="480" as="targetPoint" />
          </mxGeometry>
        </mxCell>
        <mxCell id="0kle1VkK1ZtakKVvM_SF-36" value="" style="endArrow=none;html=1;rounded=0;entryX=0;entryY=0.5;entryDx=0;entryDy=0;exitX=1;exitY=0.5;exitDx=0;exitDy=0;" edge="1" parent="1" source="0kle1VkK1ZtakKVvM_SF-11" target="0kle1VkK1ZtakKVvM_SF-29">
          <mxGeometry width="50" height="50" relative="1" as="geometry">
            <mxPoint x="450" y="510" as="sourcePoint" />
            <mxPoint x="500" y="460" as="targetPoint" />
          </mxGeometry>
        </mxCell>
        <mxCell id="0kle1VkK1ZtakKVvM_SF-37" value="" style="endArrow=classic;html=1;rounded=0;exitX=0;exitY=0.5;exitDx=0;exitDy=0;entryX=1;entryY=0.5;entryDx=0;entryDy=0;dashed=1;dashPattern=1 4;" edge="1" parent="1" source="0kle1VkK1ZtakKVvM_SF-10" target="0kle1VkK1ZtakKVvM_SF-6">
          <mxGeometry width="50" height="50" relative="1" as="geometry">
            <mxPoint x="450" y="510" as="sourcePoint" />
            <mxPoint x="500" y="460" as="targetPoint" />
          </mxGeometry>
        </mxCell>
        <mxCell id="0kle1VkK1ZtakKVvM_SF-38" value="" style="endArrow=classic;html=1;rounded=0;exitX=0;exitY=0.5;exitDx=0;exitDy=0;entryX=1;entryY=0.75;entryDx=0;entryDy=0;dashed=1;dashPattern=1 4;" edge="1" parent="1" source="0kle1VkK1ZtakKVvM_SF-11" target="0kle1VkK1ZtakKVvM_SF-6">
          <mxGeometry width="50" height="50" relative="1" as="geometry">
            <mxPoint x="450" y="510" as="sourcePoint" />
            <mxPoint x="500" y="460" as="targetPoint" />
          </mxGeometry>
        </mxCell>
        <mxCell id="0kle1VkK1ZtakKVvM_SF-39" value="" style="endArrow=classic;html=1;rounded=0;exitX=0;exitY=0.5;exitDx=0;exitDy=0;dashed=1;dashPattern=1 4;" edge="1" parent="1" source="0kle1VkK1ZtakKVvM_SF-8">
          <mxGeometry width="50" height="50" relative="1" as="geometry">
            <mxPoint x="450" y="510" as="sourcePoint" />
            <mxPoint x="420" y="455" as="targetPoint" />
          </mxGeometry>
        </mxCell>
        <mxCell id="0kle1VkK1ZtakKVvM_SF-40" value="" style="endArrow=classic;html=1;rounded=0;exitX=0;exitY=0.5;exitDx=0;exitDy=0;entryX=1;entryY=0.75;entryDx=0;entryDy=0;dashed=1;dashPattern=1 4;" edge="1" parent="1" source="0kle1VkK1ZtakKVvM_SF-9" target="0kle1VkK1ZtakKVvM_SF-5">
          <mxGeometry width="50" height="50" relative="1" as="geometry">
            <mxPoint x="450" y="510" as="sourcePoint" />
            <mxPoint x="500" y="460" as="targetPoint" />
          </mxGeometry>
        </mxCell>
        <mxCell id="0kle1VkK1ZtakKVvM_SF-42" value="" style="endArrow=classic;html=1;rounded=0;entryX=0.5;entryY=1;entryDx=0;entryDy=0;dashed=1;dashPattern=1 4;" edge="1" parent="1" target="0kle1VkK1ZtakKVvM_SF-7">
          <mxGeometry width="50" height="50" relative="1" as="geometry">
            <mxPoint x="420" y="580" as="sourcePoint" />
            <mxPoint x="500" y="460" as="targetPoint" />
            <Array as="points">
              <mxPoint x="440" y="430" />
            </Array>
          </mxGeometry>
        </mxCell>
        <mxCell id="0kle1VkK1ZtakKVvM_SF-43" value="" style="endArrow=classic;html=1;rounded=0;exitX=1;exitY=0.5;exitDx=0;exitDy=0;entryX=0.5;entryY=1;entryDx=0;entryDy=0;dashed=1;dashPattern=1 4;" edge="1" parent="1" source="0kle1VkK1ZtakKVvM_SF-5" target="0kle1VkK1ZtakKVvM_SF-7">
          <mxGeometry width="50" height="50" relative="1" as="geometry">
            <mxPoint x="450" y="510" as="sourcePoint" />
            <mxPoint x="500" y="460" as="targetPoint" />
          </mxGeometry>
        </mxCell>
      </root>
    </mxGraphModel>
  </diagram>
</mxfile>
